<svg width="600" height="979" viewBox="0 0 600 979" fill="none" xmlns="http://www.w3.org/2000/svg">
<path fill-rule="evenodd" clip-rule="evenodd" d="M50 25C50 11.1929 38.8071 0 25 0C11.1929 0 0 11.1929 0 25V979H50H100H150H200H250H300H350H400H450H500H550H600V75V50C600 63.8071 588.807 75 575 75C561.193 75 550 63.8071 550 50C550 36.1929 538.807 25 525 25C511.193 25 500 36.1929 500 50V127C500 140.807 488.807 152 475 152C461.193 152 450 140.807 450 127C450 113.193 438.807 102 425 102C411.193 102 400 113.193 400 127V172C400 185.807 388.807 197 375 197C361.193 197 350 185.807 350 172V104C350 90.1929 338.807 79 325 79C311.193 79 300 90.1929 300 104V198C300 211.807 288.807 223 275 223C261.193 223 250 211.807 250 198V132C250 118.193 238.807 107 225 107C211.193 107 200 118.193 200 132V156C200 169.807 188.807 181 175 181C161.193 181 150 169.807 150 156V110C150 96.1929 138.807 85 125 85C111.193 85 100 96.1929 100 110V127C100 140.807 88.8071 152 75 152C61.1929 152 50 140.807 50 127V25Z" fill="url(#paint0_linear)"/>
<defs>
<linearGradient id="paint0_linear" x1="300" y1="0" x2="300" y2="979" gradientUnits="userSpaceOnUse">
<stop stop-color="#D58585"/>
<stop offset="0.0001" stop-color="#55B5D3" stop-opacity="0.989583"/>
<stop offset="0.427083" stop-color="#AB9BF0" stop-opacity="0.993814"/>
<stop offset="1" stop-color="#FF93EE"/>
</linearGradient>
</defs>
</svg>
